# This file uses centimeters as units for non-parametric coordinates.

mtllib DroneBody.mtl
g default
v -1.050415 -0.535341 1.066888
v 1.159683 -0.535341 1.066888
v -1.050415 0.476697 1.066888
v 1.159683 0.476697 1.066888
v -1.050415 0.476697 -1.143211
v 1.159683 0.476697 -1.143211
v -1.050415 -0.535341 -1.143211
v 1.159683 -0.535341 -1.143211
v -0.810532 0.236809 -2.267689
v 0.919800 0.236809 -2.267689
v 0.919800 -0.295453 -2.267689
v -0.810532 -0.295453 -2.267689
v -0.922646 -0.476835 2.161376
v 1.031914 -0.476835 2.161376
v 1.031914 0.418190 2.161376
v -0.922646 0.418190 2.161376
v -0.762825 -0.774115 1.209311
v 0.872086 -0.774115 1.209311
v 0.777573 -0.730836 2.018953
v -0.668304 -0.730836 2.018953
vt 0.375000 0.000000
vt 0.625000 0.000000
vt 0.625000 0.250000
vt 0.375000 0.250000
vt 0.375000 0.250000
vt 0.625000 0.250000
vt 0.625000 0.500000
vt 0.375000 0.500000
vt 0.375000 0.500000
vt 0.625000 0.500000
vt 0.625000 0.750000
vt 0.375000 0.750000
vt 0.375000 0.750000
vt 0.625000 0.750000
vt 0.625000 1.000000
vt 0.375000 1.000000
vt 0.625000 0.000000
vt 0.875000 0.000000
vt 0.875000 0.250000
vt 0.125000 0.000000
vt 0.375000 0.000000
vt 0.125000 0.250000
vt 0.375000 0.000000
vt 0.625000 0.000000
vt 0.625000 0.000000
vt 0.375000 0.000000
vn 0.000000 0.000000 1.000000
vn 0.000000 0.000000 1.000000
vn 0.000000 0.000000 1.000000
vn 0.000000 0.000000 1.000000
vn 0.000000 0.999870 0.016132
vn 0.000000 0.999870 0.016132
vn 0.000000 0.998158 -0.060667
vn 0.000000 0.998158 -0.060667
vn 0.000000 0.000000 -1.000000
vn 0.000000 0.000000 -1.000000
vn 0.000000 0.000000 -1.000000
vn 0.000000 0.000000 -1.000000
vn 0.000000 -0.998158 -0.060667
vn 0.000000 -0.998158 -0.060667
vn 0.000000 -1.000000 0.000000
vn 0.000000 -1.000000 0.000000
vn 0.999380 0.000000 0.035212
vn 0.998898 0.000000 -0.046944
vn 0.998898 0.000000 -0.046944
vn 0.999380 0.000000 0.035212
vn -0.998898 0.000000 -0.046944
vn -0.999380 0.000000 0.035212
vn -0.999380 0.000000 0.035212
vn -0.998898 0.000000 -0.046944
vn 0.000000 0.998158 -0.060667
vn 0.000000 0.998158 -0.060667
vn 0.000000 0.977993 -0.208638
vn 0.000000 0.977993 -0.208638
vn 0.998898 0.000000 -0.046944
vn 0.998898 0.000000 -0.046944
vn 0.977993 0.000000 -0.208638
vn 0.977993 0.000000 -0.208638
vn 0.000000 -0.998158 -0.060667
vn 0.000000 -0.998158 -0.060667
vn 0.000000 -0.977993 -0.208638
vn 0.000000 -0.977993 -0.208638
vn -0.998898 0.000000 -0.046944
vn -0.998898 0.000000 -0.046944
vn -0.977993 0.000000 -0.208637
vn -0.977993 0.000000 -0.208637
vn 0.000000 -0.998574 0.053379
vn 0.000000 -0.998574 0.053379
vn 0.000000 -0.998574 0.053379
vn 0.000000 -0.998574 0.053379
vn 0.999380 0.000000 0.035212
vn 0.999380 0.000000 0.035212
vn 0.993255 0.000000 0.115950
vn 0.993255 0.000000 0.115950
vn 0.000000 0.999870 0.016132
vn 0.000000 0.999870 0.016132
vn 0.000000 0.998574 0.053379
vn 0.000000 0.998574 0.053379
vn -0.999380 0.000000 0.035212
vn -0.999380 0.000000 0.035212
vn -0.993255 0.000000 0.115950
vn -0.993255 0.000000 0.115950
vn 0.000000 -0.512270 -0.858824
vn 0.000000 -0.512270 -0.858824
vn 0.000000 -0.512270 -0.858824
vn 0.000000 -0.512270 -0.858824
vn 0.668109 -0.734764 0.117270
vn 0.668109 -0.734764 0.117270
vn 0.668109 -0.734764 0.117270
vn 0.668109 -0.734764 0.117270
vn 0.000000 -0.489081 0.872238
vn 0.000000 -0.489081 0.872238
vn 0.000000 -0.489081 0.872238
vn 0.000000 -0.489081 0.872238
vn -0.668108 -0.734764 0.117270
vn -0.668108 -0.734764 0.117270
vn -0.668109 -0.734764 0.117270
vn -0.668109 -0.734764 0.117270
s off
g DroneBody
usemtl initialShadingGroup
f 13/1/1 14/2/2 15/3/3 16/4/4
f 3/5/5 4/6/6 6/7/7 5/8/8
f 9/9/9 10/10/10 11/11/11 12/12/12
f 7/13/13 8/14/14 2/15/15 1/16/16
f 2/17/17 8/18/18 6/19/19 4/6/20
f 7/20/21 1/21/22 3/5/23 5/22/24
f 5/8/25 6/7/26 10/10/27 9/9/28
f 6/7/29 8/14/30 11/11/31 10/10/32
f 8/14/33 7/13/34 12/12/35 11/11/36
f 7/13/37 5/8/38 9/9/39 12/12/40
f 17/23/41 18/24/42 19/25/43 20/26/44
f 2/17/45 4/6/46 15/3/47 14/2/48
f 4/6/49 3/5/50 16/4/51 15/3/52
f 3/5/53 1/21/54 13/1/55 16/4/56
f 1/21/57 2/17/58 18/24/59 17/23/60
f 2/17/61 14/2/62 19/25/63 18/24/64
f 14/2/65 13/1/66 20/26/67 19/25/68
f 13/1/69 1/21/70 17/23/71 20/26/72
