# This file uses centimeters as units for non-parametric coordinates.

mtllib DronePropellorLegs.mtl
g default
v 0.637062 0.100714 1.484970
v 0.611275 0.082135 1.510755
v 0.590813 0.053197 1.531217
v 0.577675 0.016732 1.544354
v 0.573151 -0.023689 1.548881
v 0.577675 -0.064110 1.544354
v 0.590813 -0.100574 1.531217
v 0.611275 -0.129512 1.510755
v 0.637062 -0.148091 1.484970
v 0.665642 -0.154494 1.456389
v 0.694221 -0.148091 1.427807
v 0.720009 -0.129512 1.402022
v 0.740471 -0.100574 1.381560
v 0.753609 -0.064110 1.368423
v 0.758141 -0.023689 1.363895
v 0.753609 0.016732 1.368423
v 0.740471 0.053196 1.381560
v 0.720009 0.082135 1.402022
v 0.694221 0.100714 1.427807
v 0.665642 0.107116 1.456389
v 2.314438 0.100714 3.162340
v 2.288651 0.082135 3.188124
v 2.268188 0.053197 3.208586
v 2.255051 0.016732 3.221724
v 2.250519 -0.023689 3.226251
v 2.255051 -0.064110 3.221724
v 2.268188 -0.100574 3.208586
v 2.288651 -0.129512 3.188124
v 2.314438 -0.148091 3.162340
v 2.343018 -0.154494 3.133758
v 2.371597 -0.148091 3.105176
v 2.397385 -0.129512 3.079392
v 2.417847 -0.100574 3.058929
v 2.430984 -0.064110 3.045792
v 2.435501 -0.023689 3.041265
v 2.430984 0.016732 3.045792
v 2.417847 0.053196 3.058929
v 2.397385 0.082135 3.079392
v 2.371597 0.100714 3.105176
v 2.343018 0.107116 3.133758
v 0.665642 -0.023689 1.456389
v 2.343018 -0.023689 3.133758
vt 0.375000 0.312500
vt 0.387500 0.312500
vt 0.387500 0.687500
vt 0.375000 0.687500
vt 0.400000 0.312500
vt 0.400000 0.687500
vt 0.412500 0.312500
vt 0.412500 0.687500
vt 0.425000 0.312500
vt 0.425000 0.687500
vt 0.437500 0.312500
vt 0.437500 0.687500
vt 0.450000 0.312500
vt 0.450000 0.687500
vt 0.462500 0.312500
vt 0.462500 0.687500
vt 0.475000 0.312500
vt 0.475000 0.687500
vt 0.487500 0.312500
vt 0.487500 0.687500
vt 0.500000 0.312500
vt 0.500000 0.687500
vt 0.512500 0.312500
vt 0.512500 0.687500
vt 0.525000 0.312500
vt 0.525000 0.687500
vt 0.537500 0.312500
vt 0.537500 0.687500
vt 0.550000 0.312500
vt 0.550000 0.687500
vt 0.562500 0.312500
vt 0.562500 0.687500
vt 0.575000 0.312500
vt 0.575000 0.687500
vt 0.587500 0.312500
vt 0.587500 0.687500
vt 0.600000 0.312500
vt 0.600000 0.687500
vt 0.612500 0.312500
vt 0.612500 0.687500
vt 0.625000 0.312500
vt 0.625000 0.687500
vt 0.626409 0.064408
vt 0.648603 0.107966
vt 0.500000 0.156250
vt 0.591842 0.029841
vt 0.548284 0.007647
vt 0.500000 -0.000000
vt 0.451716 0.007647
vt 0.408159 0.029841
vt 0.373591 0.064409
vt 0.351397 0.107966
vt 0.343750 0.156250
vt 0.351397 0.204534
vt 0.373591 0.248091
vt 0.408159 0.282659
vt 0.451716 0.304853
vt 0.500000 0.312500
vt 0.548284 0.304853
vt 0.591841 0.282659
vt 0.626409 0.248091
vt 0.648603 0.204534
vt 0.656250 0.156250
vt 0.648603 0.892034
vt 0.626409 0.935591
vt 0.500000 0.843750
vt 0.591841 0.970159
vt 0.548284 0.992353
vt 0.500000 1.000000
vt 0.451716 0.992353
vt 0.408159 0.970159
vt 0.373591 0.935591
vt 0.351397 0.892034
vt 0.343750 0.843750
vt 0.351397 0.795466
vt 0.373591 0.751909
vt 0.408159 0.717341
vt 0.451716 0.695147
vt 0.500000 0.687500
vt 0.548284 0.695147
vt 0.591842 0.717341
vt 0.626409 0.751908
vt 0.648603 0.795466
vt 0.656250 0.843750
vn -0.321003 0.891018 0.321004
vn -0.321003 0.891018 0.321004
vn -0.321003 0.891018 0.321004
vn -0.321003 0.891018 0.321004
vn -0.415627 0.809017 0.415627
vn -0.572061 0.587785 0.572061
vn -0.572061 0.587785 0.572061
vn -0.415627 0.809017 0.415627
vn -0.572061 0.587785 0.572061
vn -0.672499 0.309017 0.672499
vn -0.672499 0.309017 0.672499
vn -0.572061 0.587785 0.572061
vn -0.672499 0.309017 0.672499
vn -0.707107 0.000000 0.707107
vn -0.707107 0.000000 0.707107
vn -0.672499 0.309017 0.672499
vn -0.707107 0.000000 0.707107
vn -0.672499 -0.309017 0.672499
vn -0.672499 -0.309017 0.672499
vn -0.707107 0.000000 0.707107
vn -0.672499 -0.309017 0.672499
vn -0.572061 -0.587785 0.572061
vn -0.572061 -0.587785 0.572061
vn -0.672499 -0.309017 0.672499
vn -0.572061 -0.587785 0.572061
vn -0.415627 -0.809017 0.415627
vn -0.415627 -0.809017 0.415627
vn -0.572061 -0.587785 0.572061
vn -0.415627 -0.809017 0.415627
vn -0.218508 -0.951057 0.218508
vn -0.218508 -0.951057 0.218508
vn -0.415627 -0.809017 0.415627
vn -0.218508 -0.951057 0.218508
vn 0.000000 -1.000000 0.000000
vn 0.000000 -1.000000 0.000000
vn -0.218508 -0.951057 0.218508
vn 0.000000 -1.000000 0.000000
vn 0.218508 -0.951057 -0.218508
vn 0.218508 -0.951057 -0.218508
vn 0.000000 -1.000000 0.000000
vn 0.218508 -0.951057 -0.218508
vn 0.415627 -0.809017 -0.415627
vn 0.415627 -0.809017 -0.415627
vn 0.218508 -0.951057 -0.218508
vn 0.415627 -0.809017 -0.415627
vn 0.572061 -0.587785 -0.572061
vn 0.572061 -0.587785 -0.572061
vn 0.415627 -0.809017 -0.415627
vn 0.572061 -0.587785 -0.572061
vn 0.672499 -0.309017 -0.672499
vn 0.672499 -0.309017 -0.672499
vn 0.572061 -0.587785 -0.572061
vn 0.672499 -0.309017 -0.672499
vn 0.707107 0.000000 -0.707107
vn 0.707107 0.000000 -0.707107
vn 0.672499 -0.309017 -0.672499
vn 0.707107 0.000000 -0.707107
vn 0.672499 0.309017 -0.672499
vn 0.672499 0.309017 -0.672499
vn 0.707107 0.000000 -0.707107
vn 0.672499 0.309017 -0.672499
vn 0.572061 0.587785 -0.572061
vn 0.572061 0.587785 -0.572061
vn 0.672499 0.309017 -0.672499
vn 0.572061 0.587785 -0.572061
vn 0.415627 0.809017 -0.415627
vn 0.415627 0.809017 -0.415627
vn 0.572061 0.587785 -0.572061
vn 0.415627 0.809017 -0.415627
vn 0.218508 0.951057 -0.218508
vn 0.218508 0.951057 -0.218508
vn 0.415627 0.809017 -0.415627
vn 0.218508 0.951057 -0.218508
vn 0.000001 1.000000 -0.000001
vn 0.000001 1.000000 -0.000001
vn 0.218508 0.951057 -0.218508
vn 0.000001 1.000000 -0.000001
vn -0.218507 0.951057 0.218507
vn -0.218507 0.951057 0.218507
vn 0.000001 1.000000 -0.000001
vn -0.707107 0.000000 -0.707107
vn -0.707107 0.000000 -0.707107
vn -0.707107 0.000000 -0.707107
vn -0.707107 0.000000 -0.707107
vn -0.707107 0.000000 -0.707107
vn -0.707107 0.000000 -0.707107
vn -0.707107 0.000000 -0.707107
vn -0.707107 0.000000 -0.707107
vn -0.707107 0.000000 -0.707107
vn -0.707107 0.000000 -0.707107
vn -0.707107 0.000000 -0.707107
vn -0.707107 0.000000 -0.707107
vn -0.707107 0.000000 -0.707107
vn -0.707107 0.000000 -0.707107
vn -0.707107 0.000000 -0.707107
vn -0.707107 0.000000 -0.707107
vn -0.707107 0.000000 -0.707107
vn -0.707107 0.000000 -0.707107
vn -0.707107 0.000000 -0.707107
vn -0.707107 0.000000 -0.707107
vn -0.707107 0.000000 -0.707107
vn -0.707107 0.000000 -0.707107
vn -0.707107 0.000000 -0.707107
vn -0.707107 0.000000 -0.707107
vn -0.707107 0.000000 -0.707107
vn -0.707107 0.000000 -0.707107
vn -0.707107 0.000000 -0.707107
vn -0.707107 0.000000 -0.707107
vn -0.707107 0.000000 -0.707107
vn -0.707107 0.000000 -0.707107
vn -0.707107 0.000000 -0.707107
vn -0.707107 0.000000 -0.707107
vn -0.707107 0.000000 -0.707107
vn -0.707107 0.000000 -0.707107
vn -0.707107 0.000000 -0.707107
vn -0.707107 0.000000 -0.707107
vn -0.707107 0.000000 -0.707107
vn -0.707107 0.000000 -0.707107
vn -0.707107 0.000000 -0.707107
vn -0.707107 0.000000 -0.707107
vn -0.707107 0.000000 -0.707107
vn -0.707107 0.000000 -0.707107
vn -0.707107 0.000000 -0.707107
vn -0.707107 0.000000 -0.707107
vn -0.707107 0.000000 -0.707107
vn -0.707107 0.000000 -0.707107
vn -0.707107 0.000000 -0.707107
vn -0.707107 0.000000 -0.707107
vn -0.707107 0.000000 -0.707107
vn -0.707107 0.000000 -0.707107
vn -0.707107 0.000000 -0.707107
vn -0.707107 0.000000 -0.707107
vn -0.707107 0.000000 -0.707107
vn -0.707107 0.000000 -0.707107
vn -0.707107 0.000000 -0.707107
vn -0.707107 0.000000 -0.707107
vn -0.707107 0.000000 -0.707107
vn -0.707107 0.000000 -0.707107
vn -0.707107 0.000000 -0.707107
vn -0.707107 0.000000 -0.707107
vn 0.707107 0.000000 0.707107
vn 0.707107 0.000000 0.707107
vn 0.707107 0.000000 0.707107
vn 0.707107 0.000000 0.707107
vn 0.707107 0.000000 0.707107
vn 0.707107 0.000000 0.707107
vn 0.707107 0.000000 0.707107
vn 0.707107 0.000000 0.707107
vn 0.707107 0.000000 0.707107
vn 0.707107 0.000000 0.707107
vn 0.707107 0.000000 0.707107
vn 0.707107 0.000000 0.707107
vn 0.707107 0.000000 0.707107
vn 0.707107 0.000000 0.707107
vn 0.707107 0.000000 0.707107
vn 0.707107 0.000000 0.707107
vn 0.707107 0.000000 0.707107
vn 0.707107 0.000000 0.707107
vn 0.707107 0.000000 0.707107
vn 0.707107 0.000000 0.707107
vn 0.707107 0.000000 0.707107
vn 0.707107 0.000000 0.707107
vn 0.707107 0.000000 0.707107
vn 0.707107 0.000000 0.707107
vn 0.707107 0.000000 0.707107
vn 0.707107 0.000000 0.707107
vn 0.707107 0.000000 0.707107
vn 0.707107 0.000000 0.707107
vn 0.707107 0.000000 0.707107
vn 0.707107 0.000000 0.707107
vn 0.707107 0.000000 0.707107
vn 0.707107 0.000000 0.707107
vn 0.707107 0.000000 0.707107
vn 0.707107 0.000000 0.707107
vn 0.707107 0.000000 0.707107
vn 0.707107 0.000000 0.707107
vn 0.707107 0.000000 0.707107
vn 0.707107 0.000000 0.707107
vn 0.707107 0.000000 0.707107
vn 0.707107 0.000000 0.707107
vn 0.707107 0.000000 0.707107
vn 0.707107 0.000000 0.707107
vn 0.707107 0.000000 0.707107
vn 0.707107 0.000000 0.707107
vn 0.707107 0.000000 0.707107
vn 0.707107 0.000000 0.707107
vn 0.707107 0.000000 0.707107
vn 0.707107 0.000000 0.707107
vn 0.707107 0.000000 0.707107
vn 0.707107 0.000000 0.707107
vn 0.707107 0.000000 0.707107
vn 0.707107 0.000000 0.707107
vn 0.707107 0.000000 0.707107
vn 0.707107 0.000000 0.707107
vn 0.707107 0.000000 0.707107
vn 0.707107 0.000000 0.707107
vn 0.707107 0.000000 0.707107
vn 0.707107 0.000000 0.707107
vn 0.707107 0.000000 0.707107
vn 0.707107 0.000000 0.707107
s off
g DronePropellorLeg2
usemtl initialShadingGroup
f 1/1/1 2/2/2 22/3/3 21/4/4
f 2/2/5 3/5/6 23/6/7 22/3/8
f 3/5/9 4/7/10 24/8/11 23/6/12
f 4/7/13 5/9/14 25/10/15 24/8/16
f 5/9/17 6/11/18 26/12/19 25/10/20
f 6/11/21 7/13/22 27/14/23 26/12/24
f 7/13/25 8/15/26 28/16/27 27/14/28
f 8/15/29 9/17/30 29/18/31 28/16/32
f 9/17/33 10/19/34 30/20/35 29/18/36
f 10/19/37 11/21/38 31/22/39 30/20/40
f 11/21/41 12/23/42 32/24/43 31/22/44
f 12/23/45 13/25/46 33/26/47 32/24/48
f 13/25/49 14/27/50 34/28/51 33/26/52
f 14/27/53 15/29/54 35/30/55 34/28/56
f 15/29/57 16/31/58 36/32/59 35/30/60
f 16/31/61 17/33/62 37/34/63 36/32/64
f 17/33/65 18/35/66 38/36/67 37/34/68
f 18/35/69 19/37/70 39/38/71 38/36/72
f 19/37/73 20/39/74 40/40/75 39/38/76
f 20/39/77 1/41/78 21/42/79 40/40/80
f 2/43/81 1/44/82 41/45/83
f 3/46/84 2/43/85 41/45/86
f 4/47/87 3/46/88 41/45/89
f 5/48/90 4/47/91 41/45/92
f 6/49/93 5/48/94 41/45/95
f 7/50/96 6/49/97 41/45/98
f 8/51/99 7/50/100 41/45/101
f 9/52/102 8/51/103 41/45/104
f 10/53/105 9/52/106 41/45/107
f 11/54/108 10/53/109 41/45/110
f 12/55/111 11/54/112 41/45/113
f 13/56/114 12/55/115 41/45/116
f 14/57/117 13/56/118 41/45/119
f 15/58/120 14/57/121 41/45/122
f 16/59/123 15/58/124 41/45/125
f 17/60/126 16/59/127 41/45/128
f 18/61/129 17/60/130 41/45/131
f 19/62/132 18/61/133 41/45/134
f 20/63/135 19/62/136 41/45/137
f 1/44/138 20/63/139 41/45/140
f 21/64/141 22/65/142 42/66/143
f 22/65/144 23/67/145 42/66/146
f 23/67/147 24/68/148 42/66/149
f 24/68/150 25/69/151 42/66/152
f 25/69/153 26/70/154 42/66/155
f 26/70/156 27/71/157 42/66/158
f 27/71/159 28/72/160 42/66/161
f 28/72/162 29/73/163 42/66/164
f 29/73/165 30/74/166 42/66/167
f 30/74/168 31/75/169 42/66/170
f 31/75/171 32/76/172 42/66/173
f 32/76/174 33/77/175 42/66/176
f 33/77/177 34/78/178 42/66/179
f 34/78/180 35/79/181 42/66/182
f 35/79/183 36/80/184 42/66/185
f 36/80/186 37/81/187 42/66/188
f 37/81/189 38/82/190 42/66/191
f 38/82/192 39/83/193 42/66/194
f 39/83/195 40/84/196 42/66/197
f 40/84/198 21/64/199 42/66/200
g default
v -0.772377 0.100714 -1.195129
v -0.746590 0.082135 -1.220913
v -0.726128 0.053197 -1.241375
v -0.712990 0.016732 -1.254513
v -0.708466 -0.023689 -1.259041
v -0.712990 -0.064110 -1.254513
v -0.726128 -0.100574 -1.241375
v -0.746590 -0.129512 -1.220913
v -0.772377 -0.148091 -1.195129
v -0.800957 -0.154494 -1.166548
v -0.829536 -0.148091 -1.137966
v -0.855324 -0.129512 -1.112181
v -0.875786 -0.100574 -1.091719
v -0.888924 -0.064110 -1.078581
v -0.893448 -0.023689 -1.074055
v -0.888924 0.016732 -1.078581
v -0.875786 0.053196 -1.091719
v -0.855324 0.082135 -1.112181
v -0.829536 0.100714 -1.137966
v -0.800957 0.107116 -1.166548
v -2.449745 0.100714 -2.872498
v -2.423958 0.082135 -2.898281
v -2.403496 0.053197 -2.918743
v -2.390358 0.016732 -2.931881
v -2.385834 -0.023689 -2.936409
v -2.390358 -0.064110 -2.931881
v -2.403496 -0.100574 -2.918743
v -2.423958 -0.129512 -2.898281
v -2.449745 -0.148091 -2.872498
v -2.478325 -0.154494 -2.843918
v -2.506905 -0.148091 -2.815334
v -2.532692 -0.129512 -2.789551
v -2.553154 -0.100574 -2.769089
v -2.566292 -0.064110 -2.755951
v -2.570824 -0.023689 -2.751423
v -2.566292 0.016732 -2.755951
v -2.553154 0.053196 -2.769089
v -2.532692 0.082135 -2.789551
v -2.506905 0.100714 -2.815334
v -2.478325 0.107116 -2.843918
v -0.800957 -0.023689 -1.166548
v -2.478325 -0.023689 -2.843918
vt 0.375000 0.312500
vt 0.387500 0.312500
vt 0.387500 0.687500
vt 0.375000 0.687500
vt 0.400000 0.312500
vt 0.400000 0.687500
vt 0.412500 0.312500
vt 0.412500 0.687500
vt 0.425000 0.312500
vt 0.425000 0.687500
vt 0.437500 0.312500
vt 0.437500 0.687500
vt 0.450000 0.312500
vt 0.450000 0.687500
vt 0.462500 0.312500
vt 0.462500 0.687500
vt 0.475000 0.312500
vt 0.475000 0.687500
vt 0.487500 0.312500
vt 0.487500 0.687500
vt 0.500000 0.312500
vt 0.500000 0.687500
vt 0.512500 0.312500
vt 0.512500 0.687500
vt 0.525000 0.312500
vt 0.525000 0.687500
vt 0.537500 0.312500
vt 0.537500 0.687500
vt 0.550000 0.312500
vt 0.550000 0.687500
vt 0.562500 0.312500
vt 0.562500 0.687500
vt 0.575000 0.312500
vt 0.575000 0.687500
vt 0.587500 0.312500
vt 0.587500 0.687500
vt 0.600000 0.312500
vt 0.600000 0.687500
vt 0.612500 0.312500
vt 0.612500 0.687500
vt 0.625000 0.312500
vt 0.625000 0.687500
vt 0.626409 0.064408
vt 0.648603 0.107966
vt 0.500000 0.156250
vt 0.591842 0.029841
vt 0.548284 0.007647
vt 0.500000 -0.000000
vt 0.451716 0.007647
vt 0.408159 0.029841
vt 0.373591 0.064409
vt 0.351397 0.107966
vt 0.343750 0.156250
vt 0.351397 0.204534
vt 0.373591 0.248091
vt 0.408159 0.282659
vt 0.451716 0.304853
vt 0.500000 0.312500
vt 0.548284 0.304853
vt 0.591841 0.282659
vt 0.626409 0.248091
vt 0.648603 0.204534
vt 0.656250 0.156250
vt 0.648603 0.892034
vt 0.626409 0.935591
vt 0.500000 0.843750
vt 0.591841 0.970159
vt 0.548284 0.992353
vt 0.500000 1.000000
vt 0.451716 0.992353
vt 0.408159 0.970159
vt 0.373591 0.935591
vt 0.351397 0.892034
vt 0.343750 0.843750
vt 0.351397 0.795466
vt 0.373591 0.751909
vt 0.408159 0.717341
vt 0.451716 0.695147
vt 0.500000 0.687500
vt 0.548284 0.695147
vt 0.591842 0.717341
vt 0.626409 0.751908
vt 0.648603 0.795466
vt 0.656250 0.843750
vn 0.321007 0.891016 -0.321007
vn 0.321007 0.891016 -0.321007
vn 0.321007 0.891016 -0.321007
vn 0.321007 0.891016 -0.321007
vn 0.415627 0.809017 -0.415627
vn 0.572061 0.587785 -0.572061
vn 0.572061 0.587785 -0.572061
vn 0.415627 0.809017 -0.415627
vn 0.572061 0.587785 -0.572061
vn 0.672499 0.309017 -0.672499
vn 0.672499 0.309017 -0.672499
vn 0.572061 0.587785 -0.572061
vn 0.672499 0.309017 -0.672499
vn 0.707107 0.000000 -0.707107
vn 0.707107 0.000000 -0.707107
vn 0.672499 0.309017 -0.672499
vn 0.707107 0.000000 -0.707107
vn 0.672499 -0.309017 -0.672499
vn 0.672499 -0.309017 -0.672499
vn 0.707107 0.000000 -0.707107
vn 0.672499 -0.309017 -0.672499
vn 0.572061 -0.587785 -0.572061
vn 0.572061 -0.587785 -0.572061
vn 0.672499 -0.309017 -0.672499
vn 0.572061 -0.587785 -0.572061
vn 0.415627 -0.809017 -0.415627
vn 0.415627 -0.809017 -0.415627
vn 0.572061 -0.587785 -0.572061
vn 0.415627 -0.809017 -0.415627
vn 0.218508 -0.951057 -0.218508
vn 0.218508 -0.951057 -0.218508
vn 0.415627 -0.809017 -0.415627
vn 0.218508 -0.951057 -0.218508
vn 0.000000 -1.000000 0.000000
vn 0.000000 -1.000000 0.000000
vn 0.218508 -0.951057 -0.218508
vn 0.000000 -1.000000 0.000000
vn -0.218508 -0.951057 0.218508
vn -0.218508 -0.951057 0.218508
vn 0.000000 -1.000000 0.000000
vn -0.218508 -0.951057 0.218508
vn -0.415627 -0.809017 0.415627
vn -0.415627 -0.809017 0.415627
vn -0.218508 -0.951057 0.218508
vn -0.415627 -0.809017 0.415627
vn -0.572061 -0.587785 0.572061
vn -0.572061 -0.587785 0.572061
vn -0.415627 -0.809017 0.415627
vn -0.572061 -0.587785 0.572061
vn -0.672499 -0.309017 0.672499
vn -0.672499 -0.309017 0.672499
vn -0.572061 -0.587785 0.572061
vn -0.672499 -0.309017 0.672499
vn -0.707107 0.000000 0.707107
vn -0.707107 0.000000 0.707107
vn -0.672499 -0.309017 0.672499
vn -0.707107 0.000000 0.707107
vn -0.672499 0.309017 0.672499
vn -0.672499 0.309017 0.672499
vn -0.707107 0.000000 0.707107
vn -0.672499 0.309017 0.672499
vn -0.572061 0.587785 0.572061
vn -0.572061 0.587785 0.572061
vn -0.672499 0.309017 0.672499
vn -0.572061 0.587785 0.572061
vn -0.415627 0.809017 0.415627
vn -0.415627 0.809017 0.415627
vn -0.572061 0.587785 0.572061
vn -0.415627 0.809017 0.415627
vn -0.218508 0.951057 0.218508
vn -0.218508 0.951057 0.218508
vn -0.415627 0.809017 0.415627
vn -0.218508 0.951057 0.218508
vn -0.000001 1.000000 0.000001
vn -0.000001 1.000000 0.000001
vn -0.218508 0.951057 0.218508
vn -0.000001 1.000000 0.000001
vn 0.218507 0.951057 -0.218507
vn 0.218507 0.951057 -0.218507
vn -0.000001 1.000000 0.000001
vn 0.707107 0.000000 0.707107
vn 0.707107 0.000000 0.707107
vn 0.707107 0.000000 0.707107
vn 0.707107 0.000000 0.707107
vn 0.707107 0.000000 0.707107
vn 0.707107 0.000000 0.707107
vn 0.707107 0.000000 0.707107
vn 0.707107 0.000000 0.707107
vn 0.707107 0.000000 0.707107
vn 0.707107 0.000000 0.707107
vn 0.707107 0.000000 0.707107
vn 0.707107 0.000000 0.707107
vn 0.707107 0.000000 0.707107
vn 0.707107 0.000000 0.707107
vn 0.707107 0.000000 0.707107
vn 0.707107 0.000000 0.707107
vn 0.707107 0.000000 0.707107
vn 0.707107 0.000000 0.707107
vn 0.707107 0.000000 0.707107
vn 0.707107 0.000000 0.707107
vn 0.707107 0.000000 0.707107
vn 0.707107 0.000000 0.707107
vn 0.707107 0.000000 0.707107
vn 0.707107 0.000000 0.707107
vn 0.707107 0.000000 0.707107
vn 0.707107 0.000000 0.707107
vn 0.707107 0.000000 0.707107
vn 0.707107 0.000000 0.707107
vn 0.707107 0.000000 0.707107
vn 0.707107 0.000000 0.707107
vn 0.707107 0.000000 0.707107
vn 0.707107 0.000000 0.707107
vn 0.707107 0.000000 0.707107
vn 0.707107 0.000000 0.707107
vn 0.707107 0.000000 0.707107
vn 0.707107 0.000000 0.707107
vn 0.707107 0.000000 0.707107
vn 0.707107 0.000000 0.707107
vn 0.707107 0.000000 0.707107
vn 0.707107 0.000000 0.707107
vn 0.707107 0.000000 0.707107
vn 0.707107 0.000000 0.707107
vn 0.707107 0.000000 0.707107
vn 0.707107 0.000000 0.707107
vn 0.707107 0.000000 0.707107
vn 0.707107 0.000000 0.707107
vn 0.707107 0.000000 0.707107
vn 0.707107 0.000000 0.707107
vn 0.707107 0.000000 0.707107
vn 0.707107 0.000000 0.707107
vn 0.707107 0.000000 0.707107
vn 0.707107 0.000000 0.707107
vn 0.707107 0.000000 0.707107
vn 0.707107 0.000000 0.707107
vn 0.707107 0.000000 0.707107
vn 0.707107 0.000000 0.707107
vn 0.707107 0.000000 0.707107
vn 0.707107 0.000000 0.707107
vn 0.707107 0.000000 0.707107
vn 0.707107 0.000000 0.707107
vn -0.707107 0.000000 -0.707107
vn -0.707107 0.000000 -0.707107
vn -0.707107 0.000000 -0.707107
vn -0.707107 0.000000 -0.707107
vn -0.707107 0.000000 -0.707107
vn -0.707107 0.000000 -0.707107
vn -0.707107 0.000000 -0.707107
vn -0.707107 0.000000 -0.707107
vn -0.707107 0.000000 -0.707107
vn -0.707107 0.000000 -0.707107
vn -0.707107 0.000000 -0.707107
vn -0.707107 0.000000 -0.707107
vn -0.707107 0.000000 -0.707107
vn -0.707107 0.000000 -0.707107
vn -0.707107 0.000000 -0.707107
vn -0.707107 0.000000 -0.707107
vn -0.707107 0.000000 -0.707107
vn -0.707107 0.000000 -0.707107
vn -0.707107 0.000000 -0.707107
vn -0.707107 0.000000 -0.707107
vn -0.707107 0.000000 -0.707107
vn -0.707107 0.000000 -0.707107
vn -0.707107 0.000000 -0.707107
vn -0.707107 0.000000 -0.707107
vn -0.707107 0.000000 -0.707107
vn -0.707107 0.000000 -0.707107
vn -0.707107 0.000000 -0.707107
vn -0.707107 0.000000 -0.707107
vn -0.707107 0.000000 -0.707107
vn -0.707107 0.000000 -0.707107
vn -0.707107 0.000000 -0.707107
vn -0.707107 0.000000 -0.707107
vn -0.707107 0.000000 -0.707107
vn -0.707107 0.000000 -0.707107
vn -0.707107 0.000000 -0.707107
vn -0.707107 0.000000 -0.707107
vn -0.707107 0.000000 -0.707107
vn -0.707107 0.000000 -0.707107
vn -0.707107 0.000000 -0.707107
vn -0.707107 0.000000 -0.707107
vn -0.707107 0.000000 -0.707107
vn -0.707107 0.000000 -0.707107
vn -0.707107 0.000000 -0.707107
vn -0.707107 0.000000 -0.707107
vn -0.707107 0.000000 -0.707107
vn -0.707107 0.000000 -0.707107
vn -0.707107 0.000000 -0.707107
vn -0.707107 0.000000 -0.707107
vn -0.707107 0.000000 -0.707107
vn -0.707107 0.000000 -0.707107
vn -0.707107 0.000000 -0.707107
vn -0.707107 0.000000 -0.707107
vn -0.707107 0.000000 -0.707107
vn -0.707107 0.000000 -0.707107
vn -0.707107 0.000000 -0.707107
vn -0.707107 0.000000 -0.707107
vn -0.707107 0.000000 -0.707107
vn -0.707107 0.000000 -0.707107
vn -0.707107 0.000000 -0.707107
vn -0.707107 0.000000 -0.707107
s off
g DronePropellorLeg4
usemtl initialShadingGroup
f 43/85/201 44/86/202 64/87/203 63/88/204
f 44/86/205 45/89/206 65/90/207 64/87/208
f 45/89/209 46/91/210 66/92/211 65/90/212
f 46/91/213 47/93/214 67/94/215 66/92/216
f 47/93/217 48/95/218 68/96/219 67/94/220
f 48/95/221 49/97/222 69/98/223 68/96/224
f 49/97/225 50/99/226 70/100/227 69/98/228
f 50/99/229 51/101/230 71/102/231 70/100/232
f 51/101/233 52/103/234 72/104/235 71/102/236
f 52/103/237 53/105/238 73/106/239 72/104/240
f 53/105/241 54/107/242 74/108/243 73/106/244
f 54/107/245 55/109/246 75/110/247 74/108/248
f 55/109/249 56/111/250 76/112/251 75/110/252
f 56/111/253 57/113/254 77/114/255 76/112/256
f 57/113/257 58/115/258 78/116/259 77/114/260
f 58/115/261 59/117/262 79/118/263 78/116/264
f 59/117/265 60/119/266 80/120/267 79/118/268
f 60/119/269 61/121/270 81/122/271 80/120/272
f 61/121/273 62/123/274 82/124/275 81/122/276
f 62/123/277 43/125/278 63/126/279 82/124/280
f 44/127/281 43/128/282 83/129/283
f 45/130/284 44/127/285 83/129/286
f 46/131/287 45/130/288 83/129/289
f 47/132/290 46/131/291 83/129/292
f 48/133/293 47/132/294 83/129/295
f 49/134/296 48/133/297 83/129/298
f 50/135/299 49/134/300 83/129/301
f 51/136/302 50/135/303 83/129/304
f 52/137/305 51/136/306 83/129/307
f 53/138/308 52/137/309 83/129/310
f 54/139/311 53/138/312 83/129/313
f 55/140/314 54/139/315 83/129/316
f 56/141/317 55/140/318 83/129/319
f 57/142/320 56/141/321 83/129/322
f 58/143/323 57/142/324 83/129/325
f 59/144/326 58/143/327 83/129/328
f 60/145/329 59/144/330 83/129/331
f 61/146/332 60/145/333 83/129/334
f 62/147/335 61/146/336 83/129/337
f 43/128/338 62/147/339 83/129/340
f 63/148/341 64/149/342 84/150/343
f 64/149/344 65/151/345 84/150/346
f 65/151/347 66/152/348 84/150/349
f 66/152/350 67/153/351 84/150/352
f 67/153/353 68/154/354 84/150/355
f 68/154/356 69/155/357 84/150/358
f 69/155/359 70/156/360 84/150/361
f 70/156/362 71/157/363 84/150/364
f 71/157/365 72/158/366 84/150/367
f 72/158/368 73/159/369 84/150/370
f 73/159/371 74/160/372 84/150/373
f 74/160/374 75/161/375 84/150/376
f 75/161/377 76/162/378 84/150/379
f 76/162/380 77/163/381 84/150/382
f 77/163/383 78/164/384 84/150/385
f 78/164/386 79/165/387 84/150/388
f 79/165/389 80/166/390 84/150/391
f 80/166/392 81/167/393 84/150/394
f 81/167/395 82/168/396 84/150/397
f 82/168/398 63/148/399 84/150/400
